<svg width="147" height="32" viewBox="0 0 147 32" fill="none" xmlns="http://www.w3.org/2000/svg">
<path d="M135.635 6.8923V24.8123H131.828V6.8923H135.635Z" fill="#5429FF"/>
<path d="M121.552 25.111C117.959 25.111 115.457 22.359 115.457 18.5616C115.457 14.7643 117.959 12.0123 121.552 12.0123C123.199 12.0123 124.397 12.5883 125.145 13.591V12.311H128.952V24.8123H125.145V23.5323C124.397 24.535 123.199 25.111 121.552 25.111ZM122.151 21.8683C124.012 21.8683 125.21 20.4816 125.21 18.5616C125.21 16.6416 124.012 15.255 122.151 15.255C120.333 15.255 119.178 16.6416 119.178 18.5616C119.178 20.4816 120.333 21.8683 122.151 21.8683Z" fill="#5429FF"/>
<path d="M114.589 12.311V15.575H112.108V24.8123H108.301V15.575H105.82V12.311H108.301V8.59896H112.108V12.311H114.589Z" fill="#5429FF"/>
<path d="M95.7344 24.8123V12.311H99.5413V13.591C100.29 12.5883 101.445 12.0123 103.049 12.0123C103.755 12.0123 104.204 12.055 104.696 12.2256L104.738 15.7883C104.204 15.511 103.541 15.3616 102.792 15.3616C100.76 15.3616 99.5413 16.5136 99.5413 18.4123V24.8123H95.7344Z" fill="#5429FF"/>
<path d="M86.8545 12.0123C90.7256 12.0123 93.506 14.7643 93.506 18.5616C93.506 22.359 90.7256 25.111 86.8545 25.111C82.9835 25.111 80.2031 22.359 80.2031 18.5616C80.2031 14.7643 82.9835 12.0123 86.8545 12.0123ZM86.8545 15.255C85.058 15.255 83.8817 16.6416 83.8817 18.5616C83.8817 20.4816 85.058 21.8683 86.8545 21.8683C88.6511 21.8683 89.8274 20.4816 89.8274 18.5616C89.8274 16.6416 88.6511 15.255 86.8545 15.255Z" fill="#5429FF"/>
<path d="M65.0781 24.8123V7.42564H71.7723C76.3064 7.42564 78.9584 9.94298 78.9584 13.783C78.9584 17.6656 76.3064 20.183 71.7723 20.183H68.9706V24.8123H65.0781ZM68.9706 16.7483H71.6012C73.7613 16.7483 75.0659 15.7243 75.0659 13.783C75.0659 11.863 73.7613 10.8603 71.6012 10.8603H68.9706V16.7483Z" fill="#5429FF"/>
<path d="M48.7047 25.111C45.1117 25.111 42.6094 22.359 42.6094 18.5616C42.6094 14.7643 45.1117 12.0123 48.7047 12.0123C50.3515 12.0123 51.5492 12.5883 52.2978 13.591V12.311H56.1047V24.8123H52.2978V23.5323C51.5492 24.535 50.3515 25.111 48.7047 25.111ZM49.3036 21.8683C51.1642 21.8683 52.3619 20.4816 52.3619 18.5616C52.3619 16.6416 51.1642 15.255 49.3036 15.255C47.4857 15.255 46.3307 16.6416 46.3307 18.5616C46.3307 20.4816 47.4857 21.8683 49.3036 21.8683Z" fill="#5429FF"/>
<path d="M41.7375 12.311V15.575H39.2566V24.8123H35.4497V15.575H32.9688V12.311H35.4497V8.59896H39.2566V12.311H41.7375Z" fill="#5429FF"/>
<path d="M23.7868 25.111C20.1937 25.111 17.6914 22.359 17.6914 18.5616C17.6914 14.7643 20.1937 12.0123 23.7868 12.0123C25.4336 12.0123 26.6312 12.5883 27.3798 13.591V12.311H31.1867V24.8123H27.3798V23.5323C26.6312 24.535 25.4336 25.111 23.7868 25.111ZM24.3856 21.8683C26.2463 21.8683 27.444 20.4816 27.444 18.5616C27.444 16.6416 26.2463 15.255 24.3856 15.255C22.5677 15.255 21.4128 16.6416 21.4128 18.5616C21.4128 20.4816 22.5677 21.8683 24.3856 21.8683Z" fill="#5429FF"/>
<path d="M0 24.8123V7.42564H6.75835C12.5329 7.42564 16.1046 10.9883 16.1046 16.1296C16.1046 21.271 12.5329 24.8123 6.75835 24.8123H0ZM3.89247 21.3776H6.82251C10.1589 21.3776 12.2121 19.479 12.2121 16.1296C12.2121 12.7803 10.1589 10.8603 6.82251 10.8603H3.89247V21.3776Z" fill="#5429FF"/>
<ellipse cx="142.06" cy="23.3846" rx="2.47059" ry="2.46154" fill="#F34B55"/>
</svg>
