<svg width="165" height="27" viewBox="0 0 165 27" fill="none" xmlns="http://www.w3.org/2000/svg">
<path d="M163.017 5.625V20.745H159.531V5.625H163.017Z" fill="#151C22"/>
<path d="M150.124 20.997C146.834 20.997 144.543 18.675 144.543 15.471C144.543 12.267 146.834 9.94499 150.124 9.94499C151.632 9.94499 152.728 10.431 153.414 11.277V10.197H156.899V20.745H153.414V19.665C152.728 20.511 151.632 20.997 150.124 20.997ZM150.672 18.261C152.376 18.261 153.472 17.091 153.472 15.471C153.472 13.851 152.376 12.681 150.672 12.681C149.008 12.681 147.95 13.851 147.95 15.471C147.95 17.091 149.008 18.261 150.672 18.261Z" fill="#151C22"/>
<path d="M143.746 10.197V12.951H141.475V20.745H137.989V12.951H135.718V10.197H137.989V7.065H141.475V10.197H143.746Z" fill="#151C22"/>
<path d="M126.486 20.745V10.197H129.972V11.277C130.657 10.431 131.715 9.94499 133.183 9.94499C133.83 9.94499 134.241 9.98099 134.691 10.125L134.73 13.131C134.241 12.897 133.634 12.771 132.948 12.771C131.088 12.771 129.972 13.743 129.972 15.345V20.745H126.486Z" fill="#151C22"/>
<path d="M118.353 9.94499C121.897 9.94499 124.443 12.267 124.443 15.471C124.443 18.675 121.897 20.997 118.353 20.997C114.808 20.997 112.263 18.675 112.263 15.471C112.263 12.267 114.808 9.94499 118.353 9.94499ZM118.353 12.681C116.708 12.681 115.631 13.851 115.631 15.471C115.631 17.091 116.708 18.261 118.353 18.261C119.998 18.261 121.075 17.091 121.075 15.471C121.075 13.851 119.998 12.681 118.353 12.681Z" fill="#151C22"/>
<path d="M98.416 20.745V6.075H104.545C108.697 6.075 111.125 8.199 111.125 11.439C111.125 14.715 108.697 16.839 104.545 16.839H101.98V20.745H98.416ZM101.98 13.941H104.389C106.366 13.941 107.561 13.077 107.561 11.439C107.561 9.819 106.366 8.973 104.389 8.973H101.98V13.941Z" fill="#151C22"/>
<path d="M83.4227 20.997C80.1329 20.997 77.8418 18.675 77.8418 15.471C77.8418 12.267 80.1329 9.94499 83.4227 9.94499C84.9305 9.94499 86.0271 10.431 86.7125 11.277V10.197H90.1981V20.745H86.7125V19.665C86.0271 20.511 84.9305 20.997 83.4227 20.997ZM83.971 18.261C85.6746 18.261 86.7712 17.091 86.7712 15.471C86.7712 13.851 85.6746 12.681 83.971 12.681C82.3065 12.681 81.2491 13.851 81.2491 15.471C81.2491 17.091 82.3065 18.261 83.971 18.261Z" fill="#151C22"/>
<path d="M77.0453 10.197V12.951H74.7737V20.745H71.2881V12.951H69.0166V10.197H71.2881V7.065H74.7737V10.197H77.0453Z" fill="#151C22"/>
<path d="M60.6082 20.997C57.3184 20.997 55.0273 18.675 55.0273 15.471C55.0273 12.267 57.3184 9.94499 60.6082 9.94499C62.1161 9.94499 63.2127 10.431 63.898 11.277V10.197H67.3836V20.745H63.898V19.665C63.2127 20.511 62.1161 20.997 60.6082 20.997ZM61.1565 18.261C62.8602 18.261 63.9568 17.091 63.9568 15.471C63.9568 13.851 62.8602 12.681 61.1565 12.681C59.4921 12.681 58.4346 13.851 58.4346 15.471C58.4346 17.091 59.4921 18.261 61.1565 18.261Z" fill="#151C22"/>
<path d="M38.8281 20.745V6.075H45.0161C50.3032 6.075 53.5734 9.081 53.5734 13.419C53.5734 17.757 50.3032 20.745 45.0161 20.745H38.8281ZM42.3921 17.847H45.0748C48.1296 17.847 50.0095 16.245 50.0095 13.419C50.0095 10.593 48.1296 8.973 45.0748 8.973H42.3921V17.847Z" fill="#151C22"/>
<path d="M14.334 23.5462H7.62598V17.3792H14.334V23.5462ZM16.374 2.60386C23.8976 2.60386 28.5508 6.8821 28.5508 13.055C28.5506 18.7101 24.6452 22.7528 18.2051 23.391V19.2191C21.5101 18.6731 23.4793 16.5053 23.4795 13.055C23.4795 9.03374 20.8048 6.72797 16.458 6.72788H12.6406V14.5335H7.56836V2.60386H16.374ZM2.4668 20.2259H0.402344V18.3285H2.4668V20.2259ZM6.59375 18.8021H3.49805V15.9564H6.59375V18.8021ZM17.4307 16.9056H15.3662V15.0082H17.4307V16.9056Z" fill="url(#paint0_linear_26328_23711)"/>
<defs>
<linearGradient id="paint0_linear_26328_23711" x1="27.9389" y1="21.5041" x2="5.1544" y2="1.05558" gradientUnits="userSpaceOnUse">
<stop stop-color="#5269FF"/>
<stop offset="0.451923" stop-color="#B452FF"/>
<stop offset="0.980769" stop-color="#4446FF"/>
</linearGradient>
</defs>
</svg>
